<mxfile host="Electron" modified="2024-03-18T10:04:04.766Z" agent="Mozilla/5.0 (Windows NT 10.0; Win64; x64) AppleWebKit/537.36 (KHTML, like Gecko) draw.io/24.0.4 Chrome/120.0.6099.109 Electron/28.1.0 Safari/537.36" etag="FAy7d0w45yFtBgzY1euo" version="24.0.4" type="device">
  <diagram name="Page-1" id="2YBvvXClWsGukQMizWep">
    <mxGraphModel dx="629" dy="401" grid="1" gridSize="10" guides="1" tooltips="1" connect="1" arrows="1" fold="1" page="1" pageScale="1" pageWidth="850" pageHeight="1100" math="0" shadow="0">
      <root>
        <mxCell id="0" />
        <mxCell id="1" parent="0" />
        <mxCell id="aM9ryv3xv72pqoxQDRHE-1" value="Selain" style="shape=umlLifeline;perimeter=lifelinePerimeter;whiteSpace=wrap;html=1;container=0;dropTarget=0;collapsible=0;recursiveResize=0;outlineConnect=0;portConstraint=eastwest;newEdgeStyle={&quot;edgeStyle&quot;:&quot;elbowEdgeStyle&quot;,&quot;elbow&quot;:&quot;vertical&quot;,&quot;curved&quot;:0,&quot;rounded&quot;:0};" parent="1" vertex="1">
          <mxGeometry x="40" y="40" width="100" height="340" as="geometry" />
        </mxCell>
        <mxCell id="aM9ryv3xv72pqoxQDRHE-5" value="Palvelin" style="shape=umlLifeline;perimeter=lifelinePerimeter;whiteSpace=wrap;html=1;container=0;dropTarget=0;collapsible=0;recursiveResize=0;outlineConnect=0;portConstraint=eastwest;newEdgeStyle={&quot;edgeStyle&quot;:&quot;elbowEdgeStyle&quot;,&quot;elbow&quot;:&quot;vertical&quot;,&quot;curved&quot;:0,&quot;rounded&quot;:0};" parent="1" vertex="1">
          <mxGeometry x="410" y="40" width="100" height="330" as="geometry" />
        </mxCell>
        <mxCell id="aM9ryv3xv72pqoxQDRHE-6" value="" style="html=1;points=[];perimeter=orthogonalPerimeter;outlineConnect=0;targetShapes=umlLifeline;portConstraint=eastwest;newEdgeStyle={&quot;edgeStyle&quot;:&quot;elbowEdgeStyle&quot;,&quot;elbow&quot;:&quot;vertical&quot;,&quot;curved&quot;:0,&quot;rounded&quot;:0};" parent="aM9ryv3xv72pqoxQDRHE-5" vertex="1">
          <mxGeometry x="45" y="270" width="10" height="40" as="geometry" />
        </mxCell>
        <mxCell id="hscA7EWT61-6cYdQ-dmT-2" value="" style="html=1;points=[];perimeter=orthogonalPerimeter;outlineConnect=0;targetShapes=umlLifeline;portConstraint=eastwest;newEdgeStyle={&quot;edgeStyle&quot;:&quot;elbowEdgeStyle&quot;,&quot;elbow&quot;:&quot;vertical&quot;,&quot;curved&quot;:0,&quot;rounded&quot;:0};" vertex="1" parent="aM9ryv3xv72pqoxQDRHE-5">
          <mxGeometry x="45" y="60" width="10" height="40" as="geometry" />
        </mxCell>
        <mxCell id="hscA7EWT61-6cYdQ-dmT-4" value="" style="html=1;points=[];perimeter=orthogonalPerimeter;outlineConnect=0;targetShapes=umlLifeline;portConstraint=eastwest;newEdgeStyle={&quot;edgeStyle&quot;:&quot;elbowEdgeStyle&quot;,&quot;elbow&quot;:&quot;vertical&quot;,&quot;curved&quot;:0,&quot;rounded&quot;:0};" vertex="1" parent="aM9ryv3xv72pqoxQDRHE-5">
          <mxGeometry x="45" y="200" width="10" height="40" as="geometry" />
        </mxCell>
        <mxCell id="hscA7EWT61-6cYdQ-dmT-3" value="" style="html=1;points=[];perimeter=orthogonalPerimeter;outlineConnect=0;targetShapes=umlLifeline;portConstraint=eastwest;newEdgeStyle={&quot;edgeStyle&quot;:&quot;elbowEdgeStyle&quot;,&quot;elbow&quot;:&quot;vertical&quot;,&quot;curved&quot;:0,&quot;rounded&quot;:0};" vertex="1" parent="aM9ryv3xv72pqoxQDRHE-5">
          <mxGeometry x="45" y="130" width="10" height="40" as="geometry" />
        </mxCell>
        <mxCell id="aM9ryv3xv72pqoxQDRHE-8" value="" style="html=1;verticalAlign=bottom;endArrow=open;dashed=1;endSize=8;edgeStyle=elbowEdgeStyle;elbow=vertical;curved=0;rounded=0;" parent="1" edge="1">
          <mxGeometry relative="1" as="geometry">
            <mxPoint x="95" y="140" as="targetPoint" />
            <Array as="points">
              <mxPoint x="190" y="140" />
            </Array>
            <mxPoint x="455" y="140" as="sourcePoint" />
          </mxGeometry>
        </mxCell>
        <mxCell id="hscA7EWT61-6cYdQ-dmT-6" value="" style="html=1;verticalAlign=bottom;endArrow=block;edgeStyle=elbowEdgeStyle;elbow=vertical;curved=0;rounded=0;" edge="1" parent="1" target="aM9ryv3xv72pqoxQDRHE-5">
          <mxGeometry relative="1" as="geometry">
            <mxPoint x="95" y="90.00285714285711" as="sourcePoint" />
            <Array as="points" />
            <mxPoint x="265" y="90.00285714285711" as="targetPoint" />
          </mxGeometry>
        </mxCell>
        <mxCell id="hscA7EWT61-6cYdQ-dmT-10" value="" style="html=1;verticalAlign=bottom;endArrow=block;edgeStyle=elbowEdgeStyle;elbow=vertical;curved=0;rounded=0;" edge="1" parent="1" source="aM9ryv3xv72pqoxQDRHE-1">
          <mxGeometry relative="1" as="geometry">
            <mxPoint x="95" y="120.00285714285712" as="sourcePoint" />
            <Array as="points" />
            <mxPoint x="455" y="120.00285714285711" as="targetPoint" />
          </mxGeometry>
        </mxCell>
        <mxCell id="hscA7EWT61-6cYdQ-dmT-11" value="POST&amp;nbsp;&lt;span style=&quot;color: rgb(227, 227, 227); font-family: &amp;quot;Segoe UI&amp;quot;, tahoma, sans-serif; text-align: start; text-wrap: wrap; background-color: rgb(40, 40, 40); font-size: 10px;&quot;&gt;https://studies.cs.helsinki.fi/exampleapp/new_note&lt;/span&gt;" style="text;html=1;align=center;verticalAlign=middle;resizable=0;points=[];autosize=1;strokeColor=none;fillColor=none;fontSize=10;" vertex="1" parent="1">
          <mxGeometry x="140" y="60" width="270" height="30" as="geometry" />
        </mxCell>
        <mxCell id="hscA7EWT61-6cYdQ-dmT-14" value="GET&amp;nbsp;&lt;span style=&quot;color: rgb(227, 227, 227); font-family: &amp;quot;Segoe UI&amp;quot;, tahoma, sans-serif; text-align: start; background-color: rgb(40, 40, 40); font-size: 10px;&quot;&gt;https://studies.cs.helsinki.fi/exampleapp/notes&lt;/span&gt;" style="text;html=1;align=center;verticalAlign=middle;whiteSpace=wrap;rounded=0;container=1;fontSize=10;" vertex="1" parent="1">
          <mxGeometry x="230" y="90" width="70" height="30" as="geometry" />
        </mxCell>
        <mxCell id="hscA7EWT61-6cYdQ-dmT-17" value="Muistiinpanot" style="text;html=1;align=center;verticalAlign=middle;whiteSpace=wrap;rounded=0;fontSize=10;" vertex="1" parent="1">
          <mxGeometry x="220" y="120" width="60" height="30" as="geometry" />
        </mxCell>
        <mxCell id="hscA7EWT61-6cYdQ-dmT-18" value="" style="html=1;verticalAlign=bottom;endArrow=block;edgeStyle=elbowEdgeStyle;elbow=vertical;curved=0;rounded=0;" edge="1" parent="1" target="hscA7EWT61-6cYdQ-dmT-3">
          <mxGeometry relative="1" as="geometry">
            <mxPoint x="90" y="180.2828571428571" as="sourcePoint" />
            <Array as="points" />
            <mxPoint x="450" y="180.14" as="targetPoint" />
          </mxGeometry>
        </mxCell>
        <mxCell id="hscA7EWT61-6cYdQ-dmT-19" value="" style="html=1;verticalAlign=bottom;endArrow=open;dashed=1;endSize=8;edgeStyle=elbowEdgeStyle;elbow=vertical;curved=0;rounded=0;" edge="1" parent="1">
          <mxGeometry relative="1" as="geometry">
            <mxPoint x="95" y="204.71" as="targetPoint" />
            <Array as="points">
              <mxPoint x="190" y="204.71" />
            </Array>
            <mxPoint x="455" y="204.71" as="sourcePoint" />
          </mxGeometry>
        </mxCell>
        <mxCell id="hscA7EWT61-6cYdQ-dmT-20" value="&lt;span style=&quot;color: rgb(227, 227, 227); font-family: &amp;quot;Segoe UI&amp;quot;, tahoma, sans-serif; text-align: start; background-color: rgb(40, 40, 40); font-size: 10px;&quot;&gt;GET https://studies.cs.helsinki.fi/exampleapp/main.css&lt;/span&gt;" style="text;html=1;align=center;verticalAlign=middle;whiteSpace=wrap;rounded=0;" vertex="1" parent="1">
          <mxGeometry x="131.5" y="150" width="267" height="30" as="geometry" />
        </mxCell>
        <mxCell id="hscA7EWT61-6cYdQ-dmT-22" value="css tiedosto" style="text;html=1;align=center;verticalAlign=middle;whiteSpace=wrap;rounded=0;" vertex="1" parent="1">
          <mxGeometry x="200" y="180" width="100" height="30" as="geometry" />
        </mxCell>
        <mxCell id="hscA7EWT61-6cYdQ-dmT-24" value="" style="html=1;verticalAlign=bottom;endArrow=block;edgeStyle=elbowEdgeStyle;elbow=vertical;curved=0;rounded=0;" edge="1" parent="1" source="aM9ryv3xv72pqoxQDRHE-1">
          <mxGeometry relative="1" as="geometry">
            <mxPoint x="209.99857142857144" y="249.8571428571429" as="sourcePoint" />
            <Array as="points" />
            <mxPoint x="460.07" y="250" as="targetPoint" />
          </mxGeometry>
        </mxCell>
        <mxCell id="hscA7EWT61-6cYdQ-dmT-26" value="&lt;div style=&quot;display: flex; line-height: 20px; padding-left: 8px; gap: 12px; user-select: text; margin-top: 2px; color: rgb(227, 227, 227); font-family: &amp;quot;Segoe UI&amp;quot;, tahoma, sans-serif; text-align: start; background-color: rgb(40, 40, 40);&quot; class=&quot;row&quot;&gt;&lt;div style=&quot;word-break: break-all; display: flex; align-items: center; gap: 2px; font-size: 10px;&quot; class=&quot;header-value&quot;&gt;GET https://studies.cs.helsinki.fi/exampleapp/main.js&lt;/div&gt;&lt;div&gt;&lt;br&gt;&lt;/div&gt;&lt;/div&gt;&lt;div style=&quot;display: flex; line-height: 20px; padding-left: 8px; gap: 12px; user-select: text; color: rgb(227, 227, 227); font-family: &amp;quot;Segoe UI&amp;quot;, tahoma, sans-serif; text-align: start; background-color: rgb(40, 40, 40);&quot; class=&quot;row&quot;&gt;&lt;/div&gt;" style="text;html=1;align=center;verticalAlign=middle;whiteSpace=wrap;rounded=0;" vertex="1" parent="1">
          <mxGeometry x="120" y="230" width="310" as="geometry" />
        </mxCell>
        <mxCell id="hscA7EWT61-6cYdQ-dmT-27" value="javascript tiedosto" style="text;html=1;align=center;verticalAlign=middle;whiteSpace=wrap;rounded=0;fontSize=10;" vertex="1" parent="1">
          <mxGeometry x="190" y="260" width="120" height="10" as="geometry" />
        </mxCell>
        <mxCell id="hscA7EWT61-6cYdQ-dmT-28" value="" style="html=1;verticalAlign=bottom;endArrow=open;dashed=1;endSize=8;edgeStyle=elbowEdgeStyle;elbow=vertical;curved=0;rounded=0;" edge="1" parent="1">
          <mxGeometry relative="1" as="geometry">
            <mxPoint x="95" y="280" as="targetPoint" />
            <Array as="points">
              <mxPoint x="190" y="280" />
            </Array>
            <mxPoint x="455" y="280" as="sourcePoint" />
          </mxGeometry>
        </mxCell>
        <mxCell id="hscA7EWT61-6cYdQ-dmT-30" value="" style="html=1;verticalAlign=bottom;endArrow=block;edgeStyle=elbowEdgeStyle;elbow=vertical;curved=0;rounded=0;" edge="1" parent="1">
          <mxGeometry relative="1" as="geometry">
            <mxPoint x="92.5" y="320.4228571428571" as="sourcePoint" />
            <Array as="points" />
            <mxPoint x="457.5" y="320.14" as="targetPoint" />
          </mxGeometry>
        </mxCell>
        <mxCell id="hscA7EWT61-6cYdQ-dmT-32" value="data" style="text;html=1;align=center;verticalAlign=middle;whiteSpace=wrap;rounded=0;" vertex="1" parent="1">
          <mxGeometry x="220" y="330" width="60" height="15" as="geometry" />
        </mxCell>
        <mxCell id="hscA7EWT61-6cYdQ-dmT-34" value="&#xa;&lt;span style=&quot;color: rgb(227, 227, 227); font-family: &amp;quot;Segoe UI&amp;quot;, tahoma, sans-serif; font-size: 12px; font-style: normal; font-variant-ligatures: normal; font-variant-caps: normal; font-weight: 400; letter-spacing: normal; orphans: 2; text-align: start; text-indent: 0px; text-transform: none; widows: 2; word-spacing: 0px; -webkit-text-stroke-width: 0px; white-space: normal; background-color: rgb(40, 40, 40); text-decoration-thickness: initial; text-decoration-style: initial; text-decoration-color: initial; display: inline !important; float: none;&quot;&gt;https://studies.cs.helsinki.fi/exampleapp/data.json&lt;/span&gt;&#xa;&#xa;" style="text;html=1;align=center;verticalAlign=middle;whiteSpace=wrap;rounded=0;" vertex="1" parent="1">
          <mxGeometry x="120" y="310" width="295" height="10" as="geometry" />
        </mxCell>
        <mxCell id="hscA7EWT61-6cYdQ-dmT-35" value="" style="html=1;verticalAlign=bottom;endArrow=open;dashed=1;endSize=8;edgeStyle=elbowEdgeStyle;elbow=vertical;curved=0;rounded=0;" edge="1" parent="1">
          <mxGeometry relative="1" as="geometry">
            <mxPoint x="95" y="350" as="targetPoint" />
            <Array as="points">
              <mxPoint x="190" y="350" />
            </Array>
            <mxPoint x="455" y="350" as="sourcePoint" />
          </mxGeometry>
        </mxCell>
      </root>
    </mxGraphModel>
  </diagram>
</mxfile>
